<svg width="34" height="36" viewBox="0 0 34 36" fill="none" xmlns="http://www.w3.org/2000/svg">
<path d="M32.0534 17.0354L17.8855 31.2033C16.1498 32.939 13.7957 33.9141 11.3411 33.9141C8.88647 33.9141 6.53238 32.939 4.79671 31.2033C3.06103 29.4676 2.08594 27.1136 2.08594 24.6589C2.08594 22.2043 3.06103 19.8502 4.79671 18.1146L18.9646 3.94664C20.1217 2.78953 21.6911 2.13947 23.3275 2.13947C24.964 2.13947 26.5333 2.78953 27.6905 3.94664C28.8476 5.10376 29.4976 6.67315 29.4976 8.30956C29.4976 9.94597 28.8476 11.5154 27.6905 12.6725L13.5071 26.8404C12.9286 27.419 12.1439 27.744 11.3257 27.744C10.5075 27.744 9.72277 27.419 9.14421 26.8404C8.56565 26.2618 8.24062 25.4771 8.24062 24.6589C8.24062 23.8407 8.56565 23.056 9.14421 22.4775L22.233 9.40414" stroke="#007BFF" stroke-width="3" stroke-linecap="round" stroke-linejoin="round"/>
</svg>
