<svg width="45" height="46" viewBox="0 0 45 46" fill="none" xmlns="http://www.w3.org/2000/svg">
<path d="M25.3125 13.4167C25.8303 13.4167 26.25 12.9876 26.25 12.4583C26.25 11.9291 25.8303 11.5 25.3125 11.5C24.7947 11.5 24.375 11.9291 24.375 12.4583C24.375 12.9876 24.7947 13.4167 25.3125 13.4167Z" stroke="#007BFF" stroke-width="3" stroke-linecap="round" stroke-linejoin="round"/>
<path d="M32.8125 21.0834C33.3303 21.0834 33.75 20.6543 33.75 20.125C33.75 19.5957 33.3303 19.1667 32.8125 19.1667C32.2947 19.1667 31.875 19.5957 31.875 20.125C31.875 20.6543 32.2947 21.0834 32.8125 21.0834Z" stroke="#007BFF" stroke-width="3" stroke-linecap="round" stroke-linejoin="round"/>
<path d="M15.9375 15.3334C16.4553 15.3334 16.875 14.9043 16.875 14.375C16.875 13.8457 16.4553 13.4167 15.9375 13.4167C15.4197 13.4167 15 13.8457 15 14.375C15 14.9043 15.4197 15.3334 15.9375 15.3334Z" stroke="#007BFF" stroke-width="3" stroke-linecap="round" stroke-linejoin="round"/>
<path d="M12.1875 24.9167C12.7053 24.9167 13.125 24.4876 13.125 23.9583C13.125 23.4291 12.7053 23 12.1875 23C11.6697 23 11.25 23.4291 11.25 23.9583C11.25 24.4876 11.6697 24.9167 12.1875 24.9167Z" stroke="#007BFF" stroke-width="3" stroke-linecap="round" stroke-linejoin="round"/>
<path d="M22.5 3.83331C12.1875 3.83331 3.75 12.4583 3.75 23C3.75 33.5417 12.1875 42.1667 22.5 42.1667C24.2362 42.1667 25.59 40.7368 25.59 38.9313C25.59 38.0937 25.2525 37.3309 24.7706 36.7751C24.2269 36.2212 23.9494 35.5254 23.9494 34.6188C23.9423 34.197 24.0183 33.778 24.173 33.3868C24.3276 32.9957 24.5577 32.6403 24.8496 32.342C25.1414 32.0437 25.489 31.8085 25.8717 31.6504C26.2543 31.4923 26.6642 31.4146 27.0769 31.4218H30.8194C36.54 31.4218 41.235 26.6244 41.235 20.7766C41.1844 11.523 32.7394 3.83331 22.5 3.83331Z" stroke="#007BFF" stroke-width="3" stroke-linecap="round" stroke-linejoin="round"/>
</svg>
