<svg xmlns="http://www.w3.org/2000/svg" viewBox="0 0 218.11 28.19"><defs><style>.cls-1{fill:#fff;}.cls-2{fill:#3fa9f5;}</style></defs><g id="Layer_2" data-name="Layer 2"><g id="Layer_1-2" data-name="Layer 1"><path class="cls-1" d="M44.58,24.9a.25.25,0,0,1-.23-.23V3.85a.26.26,0,0,1,.23-.26H60.93a6.93,6.93,0,0,1,6.66,7.12,6.74,6.74,0,0,1-6.77,6.57H48.61a.22.22,0,0,0-.23.24v7.15a.25.25,0,0,1-.23.23ZM60.87,13.25a2.67,2.67,0,0,0,2.69-2.65,2.94,2.94,0,0,0-2.63-3H48.61a.23.23,0,0,0-.23.23V13a.23.23,0,0,0,.23.23Z"/><path class="cls-1" d="M71.74,24.9a.2.2,0,0,1-.21-.2V3.82a.2.2,0,0,1,.21-.2h3.62a.2.2,0,0,1,.2.2V24.7a.2.2,0,0,1-.2.2Z"/><path class="cls-1" d="M80.38,24.9a.25.25,0,0,1-.24-.23V3.85a.26.26,0,0,1,.24-.26H96.73a6.92,6.92,0,0,1,6.65,7.12,6.73,6.73,0,0,1-6.77,6.57H84.41a.22.22,0,0,0-.24.24v7.15a.24.24,0,0,1-.23.23ZM96.67,13.25a2.68,2.68,0,0,0,2.69-2.65,3,3,0,0,0-2.63-3H84.41a.23.23,0,0,0-.24.23V13a.23.23,0,0,0,.24.23Z"/><path class="cls-1" d="M129.05,7.68h-16.7A.32.32,0,0,0,112,8v4a.22.22,0,0,0,.2.23h12.5a.22.22,0,0,1,.2.26l-1.14,3.6a.25.25,0,0,1-.23.17H112.23a.2.2,0,0,0-.2.2v4a.34.34,0,0,0,.32.35h16.7c.14,0,.26.15.2.27l-1.14,3.59a.2.2,0,0,1-.2.14H108.35a.32.32,0,0,1-.35-.32V4a.32.32,0,0,1,.35-.32h19.56a.21.21,0,0,1,.2.14l1.14,3.6A.22.22,0,0,1,129.05,7.68Z"/><path class="cls-1" d="M134.86,24.9a.25.25,0,0,1-.26-.26V3.88a.26.26,0,0,1,.26-.26h3.5a.27.27,0,0,1,.27.26V20.61a.25.25,0,0,0,.26.26h16.52a.19.19,0,0,1,.18.24l-1.17,3.68a.21.21,0,0,1-.17.11Z"/><path class="cls-1" d="M159.79,24.9a.2.2,0,0,1-.2-.2V3.82a.2.2,0,0,1,.2-.2h3.62a.2.2,0,0,1,.21.2V24.7a.2.2,0,0,1-.21.2Z"/><path class="cls-1" d="M169.17,24.9a.31.31,0,0,1-.3-.29V3.94a.31.31,0,0,1,.3-.29h3a.23.23,0,0,1,.2.09l15.06,14.62a.11.11,0,0,0,.09,0,.1.1,0,0,0,.09-.09l0-14.39a.31.31,0,0,1,.29-.29h3.45a.3.3,0,0,1,.29.29l0,20.67a.32.32,0,0,1-.32.32h-2.81a.23.23,0,0,1-.2-.09L173.05,10a.09.09,0,0,0-.15.06V24.61a.31.31,0,0,1-.32.29Z"/><path class="cls-1" d="M217.89,7.68H201.2a.32.32,0,0,0-.33.32v4a.22.22,0,0,0,.21.23h12.49a.22.22,0,0,1,.21.26l-1.14,3.6a.26.26,0,0,1-.23.17H201.08a.2.2,0,0,0-.21.2v4a.35.35,0,0,0,.33.35h16.69c.15,0,.27.15.21.27L217,24.67a.21.21,0,0,1-.2.14H197.2a.32.32,0,0,1-.35-.32V4a.32.32,0,0,1,.35-.32h19.56a.23.23,0,0,1,.2.14l1.14,3.6A.22.22,0,0,1,217.89,7.68Z"/><path class="cls-1" d="M17,13.18.73,28.08A.44.44,0,0,1,0,27.76V13.18Z"/><path class="cls-2" d="M22.61,0H.32A.35.35,0,0,0,0,.36V10.62H5.49V5.81a.32.32,0,0,1,.32-.32h16.8c1.88,0,3.59,2,3.59,4.06a3.64,3.64,0,0,1-3.67,3.63H17l-6,5.49H22.46a9.19,9.19,0,0,0,9.23-9C31.77,4.46,27.59,0,22.61,0Z"/></g></g></svg>